<?xml version="1.0" standalone="no"?>
<!DOCTYPE svg PUBLIC "-//W3C//DTD SVG 20010904//EN"
 "http://www.w3.org/TR/2001/REC-SVG-20010904/DTD/svg10.dtd">
<svg version="1.0" xmlns="http://www.w3.org/2000/svg"
 width="330.000000pt" height="85.000000pt" viewBox="0 0 330.000000 85.000000"
 preserveAspectRatio="xMidYMid meet">

<g transform="translate(0.000000,85.000000) scale(0.100000,-0.100000)"
fill="#E50914" stroke="none">
<path d="M100 440 c0 -338 -4 -316 59 -304 l31 6 2 210 3 210 55 -205 54 -205
41 5 c22 3 46 6 53 9 9 2 12 70 12 294 l0 290 -45 0 -45 0 -2 -167 -3 -168
-45 168 -45 167 -62 0 -63 0 0 -310z"/>
<path d="M470 459 l0 -291 33 5 c17 3 76 9 130 13 l97 6 0 45 0 44 -80 -7 -80
-7 0 81 0 80 65 7 65 7 0 39 0 39 -65 0 -65 0 0 75 0 75 80 0 80 0 0 40 0 40
-130 0 -130 0 0 -291z"/>
<path d="M790 475 l0 -277 98 7 c151 11 184 37 190 146 5 76 -9 123 -40 140
-18 10 -18 11 7 40 21 25 25 41 25 90 0 51 -4 63 -29 91 l-29 33 -111 3 -111
4 0 -277z m164 189 c12 -5 16 -20 16 -59 0 -57 -7 -65 -61 -65 l-29 0 0 65 0
65 29 0 c16 0 36 -3 45 -6z m18 -228 c12 -18 9 -121 -4 -134 -7 -7 -29 -12
-50 -12 l-38 0 0 79 c0 67 3 80 18 84 23 6 65 -4 74 -17z"/>
<path d="M1130 533 c0 -188 2 -223 18 -253 44 -88 184 -92 246 -7 20 26 21 44
24 253 l3 224 -50 0 -51 0 -2 -222 -3 -223 -34 -3 c-20 -2 -37 2 -42 10 -5 7
-9 109 -9 226 l0 212 -50 0 -50 0 0 -217z"/>
<path d="M1480 490 l0 -260 125 0 125 0 0 40 0 40 -75 0 -75 0 0 220 0 220
-50 0 -50 0 0 -260z"/>
<path d="M1831 698 c-6 -29 -28 -146 -49 -260 l-39 -208 49 0 c43 0 48 2 48
23 0 59 9 67 66 67 58 0 58 0 69 -62 l6 -38 50 0 50 0 -6 33 c-4 17 -25 136
-48 262 l-42 230 -72 3 -71 3 -11 -53z m93 -153 c9 -49 19 -102 22 -117 5 -27
4 -28 -38 -28 l-44 0 20 120 c11 65 21 118 22 117 1 -1 9 -42 18 -92z"/>
<path d="M2120 485 l0 -265 50 0 50 0 0 110 0 110 60 0 60 0 0 40 0 40 -60 0
-60 0 0 75 0 75 75 0 75 0 0 40 0 40 -125 0 -125 0 0 -265z"/>
<path d="M2410 481 c0 -149 3 -272 8 -274 4 -3 62 -8 130 -12 l122 -7 0 40 c0
39 -2 41 -32 47 -18 2 -53 6 -78 7 l-45 3 -3 233 -2 232 -50 0 -50 0 0 -269z"/>
<path d="M2710 466 l0 -284 43 -4 c23 -3 45 -3 50 -1 4 2 7 132 7 289 l0 284
-50 0 -50 0 0 -284z"/>
<path d="M2862 737 c2 -7 23 -71 47 -142 l44 -130 -52 -144 c-28 -79 -49 -146
-47 -148 2 -2 23 -5 46 -6 l43 -2 37 110 37 110 38 -121 38 -122 45 -6 c25 -3
48 -4 50 -1 3 3 -17 78 -45 166 l-51 161 48 144 49 145 -46 -3 -46 -3 -35
-105 -35 -104 -34 107 -34 107 -50 0 c-36 0 -50 -4 -47 -13z"/>
</g>
</svg>
